<?xml version="1.0" encoding="UTF-8"?>
<svg xmlns="http://www.w3.org/2000/svg" xmlns:xlink="http://www.w3.org/1999/xlink" width="115px" height="30px" viewBox="0 0 115 30" version="1.1">
<defs>
<linearGradient id="linear0" gradientUnits="userSpaceOnUse" x1="29.419" y1="12.417" x2="-0.089" y2="15.657" gradientTransform="matrix(1,0,0,-1,0,29)">
<stop offset="0" style="stop-color:rgb(55.294118%,39.607843%,91.372549%);stop-opacity:1;"/>
<stop offset="0.483" style="stop-color:rgb(32.54902%,56.862745%,89.411765%);stop-opacity:1;"/>
<stop offset="1" style="stop-color:rgb(41.960784%,80.392157%,58.039216%);stop-opacity:1;"/>
</linearGradient>
</defs>
<g id="surface1">
<path style=" stroke:none;fill-rule:nonzero;fill:rgb(0%,0%,0%);fill-opacity:1;" d="M 40.828125 17.578125 C 40.828125 20.75 39.800781 22.199219 36.78125 22.199219 C 36.269531 22.199219 35.390625 22.160156 34.910156 22.03125 L 34.910156 19.660156 C 35.160156 19.699219 35.851562 19.738281 36.269531 19.738281 C 37.640625 19.738281 37.839844 18.828125 37.839844 17.769531 L 37.839844 8.210938 L 40.820312 8.210938 L 40.820312 17.578125 Z M 43.371094 7.398438 L 46.238281 7.398438 L 46.238281 9.960938 L 43.371094 9.960938 Z M 43.371094 11.648438 L 46.238281 11.648438 L 46.238281 22 L 43.371094 22 Z M 48.808594 7.398438 L 51.679688 7.398438 L 51.679688 12.75 C 52.109375 12.078125 52.960938 11.410156 54.640625 11.410156 C 57.460938 11.410156 58.859375 13.738281 58.859375 16.640625 C 58.859375 19.609375 57.339844 22.238281 54.359375 22.238281 C 52.820312 22.238281 52.140625 21.769531 51.640625 21.019531 C 51.640625 21.359375 51.578125 21.738281 51.53125 22 L 48.789062 22 C 48.808594 20.878906 48.808594 19.738281 48.808594 18.609375 Z M 55.949219 16.691406 C 55.949219 14.960938 55.308594 13.699219 53.761719 13.699219 C 52.121094 13.699219 51.539062 14.769531 51.539062 16.878906 C 51.539062 18.621094 52.058594 19.960938 53.730469 19.960938 C 55.191406 19.960938 55.949219 18.648438 55.949219 16.691406 Z M 62.738281 11.648438 C 63.808594 15.21875 64.738281 18.410156 64.910156 19.371094 L 64.929688 19.371094 C 65.148438 18.328125 65.761719 16.011719 67 11.648438 L 69.851562 11.648438 L 66.359375 22.300781 C 65.371094 25.28125 64.539062 26.171875 62.058594 26.171875 C 61.808594 26.171875 61.210938 26.148438 60.71875 26.089844 L 60.71875 23.789062 C 60.910156 23.808594 61.230469 23.828125 61.460938 23.828125 C 62.511719 23.828125 63.039062 23.460938 63.429688 22.320312 L 59.660156 11.648438 Z M 70.679688 11.648438 L 72.28125 11.648438 L 72.28125 8.851562 L 75.148438 8.851562 L 75.148438 11.648438 L 77.179688 11.648438 L 77.179688 13.808594 L 75.148438 13.808594 L 75.148438 18.921875 C 75.148438 19.710938 75.390625 20.011719 76.238281 20.011719 C 76.398438 20.011719 76.679688 20.011719 76.890625 19.980469 L 76.890625 21.949219 C 76.320312 22.140625 75.539062 22.148438 74.960938 22.148438 C 72.941406 22.148438 72.269531 21.070312 72.269531 19.261719 L 72.269531 13.800781 L 70.671875 13.800781 L 70.671875 11.648438 Z M 81.03125 17.441406 C 81.03125 18.730469 81.679688 20 83.109375 20 C 84.300781 20 84.640625 19.519531 84.921875 18.890625 L 87.789062 18.890625 C 87.421875 20.160156 86.289062 22.238281 83.039062 22.238281 C 79.628906 22.238281 78.148438 19.691406 78.148438 16.96875 C 78.148438 13.71875 79.820312 11.398438 83.140625 11.398438 C 86.699219 11.398438 87.910156 13.96875 87.910156 16.558594 C 87.910156 16.910156 87.910156 17.140625 87.871094 17.429688 L 81.03125 17.429688 Z M 85.03125 15.671875 C 85.011719 14.460938 84.53125 13.449219 83.128906 13.449219 C 81.761719 13.449219 81.199219 14.398438 81.089844 15.671875 Z M 92.789062 18.808594 L 91.710938 22 L 88.78125 22 L 93.460938 8.210938 L 97.210938 8.210938 L 102.089844 22 L 98.960938 22 L 97.828125 18.808594 Z M 97.179688 16.371094 C 96.199219 13.460938 95.578125 11.601562 95.238281 10.359375 L 95.21875 10.359375 C 94.878906 11.71875 94.191406 13.878906 93.410156 16.371094 Z M 106.839844 8.210938 L 106.839844 22 L 103.859375 22 L 103.859375 8.210938 Z M 106.839844 8.210938 "/>
<path style=" stroke:none;fill-rule:nonzero;fill:url(#linear0);" d="M 15 0.410156 C 6.941406 0.410156 0.410156 6.941406 0.410156 15 C 0.410156 23.058594 6.941406 29.589844 15 29.589844 C 23.058594 29.589844 29.589844 23.058594 29.589844 15 C 29.589844 6.941406 23.058594 0.410156 15 0.410156 Z M 15 0.410156 "/>
<path style=" stroke:none;fill-rule:nonzero;fill:rgb(100%,100%,100%);fill-opacity:1;" d="M 12.890625 19.199219 L 13.210938 19.128906 C 13.300781 19.109375 13.378906 19.058594 13.441406 18.988281 C 13.5 18.921875 13.53125 18.828125 13.53125 18.738281 C 13.53125 18.648438 13.5 18.558594 13.441406 18.488281 C 13.378906 18.417969 13.300781 18.371094 13.210938 18.351562 L 12.890625 18.28125 C 12.488281 18.199219 12.128906 18.011719 11.851562 17.71875 C 11.558594 17.429688 11.371094 17.070312 11.289062 16.679688 L 11.230469 16.359375 C 11.210938 16.269531 11.160156 16.191406 11.089844 16.128906 C 11.019531 16.070312 10.929688 16.039062 10.839844 16.039062 C 10.75 16.039062 10.660156 16.070312 10.589844 16.128906 C 10.519531 16.191406 10.46875 16.269531 10.449219 16.359375 L 10.378906 16.679688 C 10.300781 17.078125 10.109375 17.441406 9.820312 17.71875 C 9.53125 18.011719 9.171875 18.199219 8.78125 18.28125 L 8.460938 18.351562 C 8.371094 18.371094 8.289062 18.421875 8.230469 18.488281 C 8.171875 18.558594 8.140625 18.648438 8.140625 18.738281 C 8.140625 18.828125 8.171875 18.921875 8.230469 18.988281 C 8.289062 19.058594 8.371094 19.109375 8.460938 19.128906 L 8.78125 19.199219 C 9.179688 19.28125 9.539062 19.46875 9.820312 19.761719 C 10.109375 20.050781 10.300781 20.410156 10.378906 20.800781 L 10.449219 21.121094 C 10.46875 21.210938 10.519531 21.289062 10.589844 21.351562 C 10.660156 21.410156 10.75 21.441406 10.839844 21.441406 C 10.929688 21.441406 11.019531 21.410156 11.089844 21.351562 C 11.160156 21.289062 11.210938 21.210938 11.230469 21.121094 L 11.289062 20.800781 C 11.371094 20.398438 11.570312 20.039062 11.851562 19.761719 C 12.128906 19.46875 12.488281 19.28125 12.890625 19.199219 Z M 20.648438 13.390625 L 21.828125 13.148438 C 22.007812 13.113281 22.15625 12.988281 22.21875 12.816406 C 22.277344 12.644531 22.246094 12.453125 22.128906 12.308594 C 22.054688 12.21875 21.949219 12.152344 21.828125 12.128906 L 20.648438 11.890625 C 20.078125 11.769531 19.558594 11.488281 19.148438 11.078125 C 18.738281 10.671875 18.460938 10.148438 18.339844 9.578125 L 18.101562 8.398438 C 18.0625 8.222656 17.9375 8.074219 17.765625 8.011719 C 17.59375 7.953125 17.402344 7.984375 17.261719 8.101562 C 17.171875 8.179688 17.101562 8.28125 17.078125 8.398438 L 16.839844 9.578125 C 16.71875 10.148438 16.441406 10.671875 16.03125 11.078125 C 15.621094 11.488281 15.101562 11.769531 14.53125 11.890625 L 13.351562 12.128906 C 13.171875 12.167969 13.023438 12.292969 12.964844 12.464844 C 12.902344 12.636719 12.933594 12.828125 13.050781 12.96875 C 13.128906 13.058594 13.230469 13.128906 13.351562 13.148438 L 14.53125 13.390625 C 15.101562 13.511719 15.621094 13.789062 16.03125 14.199219 C 16.441406 14.609375 16.71875 15.128906 16.839844 15.699219 L 17.078125 16.878906 C 17.117188 17.058594 17.242188 17.207031 17.414062 17.265625 C 17.585938 17.328125 17.777344 17.296875 17.921875 17.179688 C 18.011719 17.101562 18.078125 17 18.101562 16.878906 L 18.339844 15.699219 C 18.460938 15.128906 18.738281 14.609375 19.148438 14.199219 C 19.558594 13.789062 20.089844 13.511719 20.648438 13.390625 Z M 20.648438 13.390625 "/>
</g>
</svg>
